<svg id="Warstwa_1" data-name="Warstwa 1" xmlns="http://www.w3.org/2000/svg" viewBox="0 0 587 234.52"><defs><style>.cls-1{font-size:150px;}.cls-1,.cls-4{fill:#344897;font-family:Philosopher-Bold, Philosopher;font-weight:700;}.cls-2{letter-spacing:-0.01em;}.cls-3{fill:#dfb9df;}.cls-4{font-size:98px;letter-spacing:0.08em;}</style></defs><title>logo</title><text class="cls-1" transform="translate(0 124.5)">f<tspan class="cls-2" x="51.3" y="0">r</tspan><tspan x="112.65" y="0">ont</tspan><tspan class="cls-3" x="334.8" y="0">end</tspan></text><path class="cls-3" d="M112.08,184c2.37,0,4.29-1.53,4.29-3.42a3.24,3.24,0,0,0-1.65-2.7L91.35,163.4c-3.74-2.32-4.42-6.62-1.51-9.6.15-.15.31-.3.48-.44l19.61-16.92a3,3,0,0,0-.26-4.82,5.1,5.1,0,0,0-6,.19L74.5,156.92a3,3,0,0,0,.24,4.83l.28.19,34.43,21.32A5.11,5.11,0,0,0,112.08,184Z" transform="translate(0 22.5)"/><path class="cls-3" d="M447.9,184.13c-2.4,0-4.34-1.52-4.34-3.39a3.22,3.22,0,0,1,1.68-2.69l23.59-14.38c3.78-2.31,4.47-6.58,1.53-9.55-.15-.15-.31-.3-.48-.44l-19.81-16.82a2.91,2.91,0,0,1,.22-4.8,5.21,5.21,0,0,1,6.12.17l0,0,29.42,25a2.91,2.91,0,0,1-.24,4.8l-.28.19-34.78,21.2A5.15,5.15,0,0,1,447.9,184.13Z" transform="translate(0 22.5)"/><text class="cls-4" transform="translate(143 202.18)">coder</text></svg>