<?xml version="1.0" standalone="no"?>
<svg xmlns:xlink="http://www.w3.org/1999/xlink" id="wave" style="transform:rotate(180deg); transition: 0.3s" viewBox="0 0 1440 160" version="1.1" xmlns="http://www.w3.org/2000/svg"><defs><linearGradient id="sw-gradient-0" x1="0" x2="0" y1="1" y2="0"><stop stop-color="rgba(223, 185, 223, 1)" offset="0%"/><stop stop-color="rgba(223, 185, 223, 1)" offset="100%"/></linearGradient></defs><path style="transform:translate(0, 0px); opacity:1" fill="url(#sw-gradient-0)" d="M0,64L40,74.7C80,85,160,107,240,96C320,85,400,43,480,34.7C560,27,640,53,720,69.3C800,85,880,91,960,77.3C1040,64,1120,32,1200,37.3C1280,43,1360,85,1440,109.3C1520,133,1600,139,1680,138.7C1760,139,1840,133,1920,125.3C2000,117,2080,107,2160,93.3C2240,80,2320,64,2400,56C2480,48,2560,48,2640,45.3C2720,43,2800,37,2880,45.3C2960,53,3040,75,3120,72C3200,69,3280,43,3360,29.3C3440,16,3520,16,3600,21.3C3680,27,3760,37,3840,45.3C3920,53,4000,59,4080,64C4160,69,4240,75,4320,88C4400,101,4480,123,4560,109.3C4640,96,4720,48,4800,37.3C4880,27,4960,53,5040,61.3C5120,69,5200,59,5280,64C5360,69,5440,91,5520,93.3C5600,96,5680,80,5720,72L5760,64L5760,160L5720,160C5680,160,5600,160,5520,160C5440,160,5360,160,5280,160C5200,160,5120,160,5040,160C4960,160,4880,160,4800,160C4720,160,4640,160,4560,160C4480,160,4400,160,4320,160C4240,160,4160,160,4080,160C4000,160,3920,160,3840,160C3760,160,3680,160,3600,160C3520,160,3440,160,3360,160C3280,160,3200,160,3120,160C3040,160,2960,160,2880,160C2800,160,2720,160,2640,160C2560,160,2480,160,2400,160C2320,160,2240,160,2160,160C2080,160,2000,160,1920,160C1840,160,1760,160,1680,160C1600,160,1520,160,1440,160C1360,160,1280,160,1200,160C1120,160,1040,160,960,160C880,160,800,160,720,160C640,160,560,160,480,160C400,160,320,160,240,160C160,160,80,160,40,160L0,160Z"/></svg>